<svg xmlns="http://www.w3.org/2000/svg" viewBox="0 0 496.28 116.54"><defs><style>.cls-1{fill:#fff;}</style></defs><g id="Layer_2" data-name="Layer 2"><g id="Layer_1-2" data-name="Layer 1"><path class="cls-1" d="M56.92,37.37a33.67,33.67,0,0,0-10.57-7.11,32.37,32.37,0,0,0-13-2.65,32.41,32.41,0,0,0-13,2.65A33.23,33.23,0,0,0,2.64,47.94,32.44,32.44,0,0,0,0,61V115H22.23V61A11.1,11.1,0,0,1,33.34,49.84,11.1,11.1,0,0,1,44.45,61V115H66.68V61a32.44,32.44,0,0,0-2.64-13A33.82,33.82,0,0,0,56.92,37.37Z"/><path class="cls-1" d="M202.07,37.37a33.67,33.67,0,0,0-10.57-7.11,33.26,33.26,0,0,0-26,0,33.23,33.23,0,0,0-17.69,17.68,32.44,32.44,0,0,0-2.64,13V115h22.23V61a11.11,11.11,0,1,1,22.22,0V115h22.23V61a32.44,32.44,0,0,0-2.64-13A33.82,33.82,0,0,0,202.07,37.37Z"/><path class="cls-1" d="M301.48,54.45a43.92,43.92,0,0,0-9.48-14,45.37,45.37,0,0,0-14-9.42,43.86,43.86,0,0,0-34.15,0,44.17,44.17,0,0,0-23.38,23.38,43.86,43.86,0,0,0,0,34.15,45.08,45.08,0,0,0,9.42,14,43.89,43.89,0,0,0,14,9.49,44,44,0,0,0,34.15,0A44.62,44.62,0,0,0,301.48,88.6a43.86,43.86,0,0,0,0-34.15ZM280.34,79.52a21.34,21.34,0,0,1-27.65,11A21.41,21.41,0,0,1,246,86.1a20.51,20.51,0,0,1-4.47-6.58,20.71,20.71,0,0,1,0-16.06A20.6,20.6,0,0,1,246,57a21.61,21.61,0,0,1,6.71-4.41,21.56,21.56,0,0,1,16.4,0,21.14,21.14,0,0,1,11.25,10.91,19.81,19.81,0,0,1,0,16.06Z"/><path class="cls-1" d="M129.5,36.53a33.65,33.65,0,0,0-10.57-7.12,33.38,33.38,0,0,0-26,0A33.2,33.2,0,0,0,75.22,47.1a32.37,32.37,0,0,0-2.64,13v54.07H94.8V93.82H117v20.36h22.23V60.11a32.21,32.21,0,0,0-2.65-13A33.67,33.67,0,0,0,129.5,36.53ZM94.8,71.59V60.11a11.12,11.12,0,1,1,22.23,0V71.59Z"/><path class="cls-1" d="M338.87,115h-23V2.26h23Z"/><path class="cls-1" d="M344.5,14.44a13.09,13.09,0,0,1,1.18-5.57,15.54,15.54,0,0,1,3.26-4.58,14.76,14.76,0,0,1,4.89-3.16A15.87,15.87,0,0,1,359.76,0a15.29,15.29,0,0,1,5.86,1.13,14.88,14.88,0,0,1,4.82,3.16,15.54,15.54,0,0,1,3.26,4.58,13.09,13.09,0,0,1,1.18,5.57A13.92,13.92,0,0,1,370.66,25,15.07,15.07,0,0,1,359.76,29a15.87,15.87,0,0,1-5.93-1.13,14.9,14.9,0,0,1-4.89-3.15,15.3,15.3,0,0,1-3.26-4.67A13.53,13.53,0,0,1,344.5,14.44ZM371.92,115h-23V38.34h23Z"/><path class="cls-1" d="M382,2.26h23v40a38.85,38.85,0,0,1,9.42-4,40.41,40.41,0,0,1,10.89-1.43,40,40,0,0,1,15.49,2.93A35,35,0,0,1,452.85,48a38.31,38.31,0,0,1,7.86,12.63,43.87,43.87,0,0,1,2.82,15.87,44.88,44.88,0,0,1-2.82,16.09,38,38,0,0,1-7.86,12.7,34.74,34.74,0,0,1-12.08,8.27,39.81,39.81,0,0,1-15.49,2.94,40.41,40.41,0,0,1-10.89-1.43,38.48,38.48,0,0,1-9.42-4V115H382Zm40.47,54.13q-8,0-12.68,5.49t-4.67,14.66q0,9.31,4.67,14.88T422.47,97q8,0,12.67-5.57t4.67-14.88q0-9.18-4.67-14.66T422.47,56.39Z"/><path class="cls-1" d="M470.34,103.45a12.24,12.24,0,0,1,1-5,12.76,12.76,0,0,1,2.82-4.06,14,14,0,0,1,4.15-2.79,12.62,12.62,0,0,1,10.08,0,13.09,13.09,0,0,1,4.07,2.79,13.39,13.39,0,0,1,2.74,4.06,12.08,12.08,0,0,1,1,5,12.82,12.82,0,0,1-3.63,9.4,13.28,13.28,0,0,1-18.53-.15A12.7,12.7,0,0,1,470.34,103.45Z"/></g></g></svg>